<?xml version="1.0" encoding="UTF-8"?>
<svg version="1.1" viewBox="0 0 2048 1537" width="1280" height="1280" xmlns="http://www.w3.org/2000/svg">
<path transform="translate(0)" d="m0 0h2048v1537h-2048z" fill="#FEFEFE"/>
<path transform="translate(966,594)" d="m0 0h64l1 87v3l11-7 14-7 16-4h26l12 2 19 7 15 9 11 10 10 14 8 16 6 18 2 14v32l-2 14-7 20-6 12-8 11-8 9-10 8-16 9-16 6-13 2h-25l-16-3-17-8-8-6h-2v12l-1 1h-16l-45-1v-279z" fill="#0D324F"/>
<path transform="translate(1538,666)" d="m0 0h31l17 3 20 7 16 9 11 9 11 11 9 14 7 15 5 17 1 7v28l-3 14-5 16-7 13-9 12-8 9-10 8-10 6-16 8-15 5-15 2h-28l-19-3-19-7-14-8-14-11-10-11-7-11-8-16-6-23-1-9v-12l2-15 5-18 8-17 10-14 13-13 16-11 15-7 20-6z" fill="#0D324F"/>
<path transform="translate(1297,666)" d="m0 0h31l16 3 18 6 18 10 10 8 9 8 10 14 8 16 5 16 2 11v28l-3 15-3 10-7 15-8 12-11 12-12 10-16 9-19 7-18 3-17 1-28-3-22-8-14-8-11-9-12-12-9-14-6-13-5-16-2-14v-18l2-15 7-21 9-17 11-13 7-7 15-11 17-8 20-6z" fill="#0D324F"/>
<path transform="translate(740,594)" d="m0 0h64l1 1 1 94 12-12 15-8 12-3h23l16 4 12 6 11 10 7 11 6 14 4 17 1 7 1 29v44l-1 67h-64l-1-42-1-90-4-8-5-5-4-3-8-2h-9l-10 3-6 5-6 10-1 4-1 102-1 26h-63l-2-1v-279z" fill="#0D324F"/>
<path transform="translate(1697,594)" d="m0 0h63l1 1v155l5-5 10-16 12-17 8-12 19-28 70-1h3l-2 5-13 18-24 34-13 19-12 16 2 5 10 15 9 14 14 22 11 17 13 20 11 17-1 2h-65l-10-1-6-9-34-56-9-15-7-11-1 91-1 1h-42l-22-1v-279z" fill="#0D324F"/>
<path transform="translate(419,666)" d="m0 0h33l15 2 18 6 12 7 10 9 7 10 5 11 4 18 1 7v138l-1 1h-56l-3-5-1-5h-4l-2 4-17 8-11 2h-25l-16-3-17-8-10-8-9-9-6-10-5-16-1-5v-17l5-19 7-12 4-5 8-7 11-7 15-6 18-3h23l22 4 6 2-1-11-3-6-5-5-6-3-13-2-18 1-16 3-18 7h-4l-7-14-10-18-6-9 2-4 21-11 16-6 14-4z" fill="#0D324F"/>
<path transform="translate(620,666)" d="m0 0h27l12 2 16 6 12 7 9 7 9 9 2 5-11 8-14 11-16 13-8-6-14-8-5-1h-13l-5 2-3 3-1 5 4 7 8 4 21 7 20 7 18 10 8 7 8 11 5 12 2 14v10l-4 18-7 12-9 10-9 7-16 8-12 4-12 2h-28l-18-3-19-8-13-8-10-9-5-5 1-4 10-9 18-18 6-5 4 1 11 8 15 6 7 1h16l7-2 4-5v-6l-5-5-10-5-28-10-12-5-14-9-10-9-6-9-6-13-2-11v-15l3-13 7-14 8-9 8-6 10-6 21-7z" fill="#0D324F"/>
<path transform="translate(249,666)" d="m0 0h28l16 3 17 6 13 8 1 5-16 51-4-1-8-6-13-5-11-2h-12l-11 2-10 5-10 9-6 10-3 12v18l4 15 7 11 10 8 10 4 10 2h14l14-3 14-7 5-2 16 49-1 5-16 8-17 6-12 2h-27l-16-2-21-7-14-8-12-9-13-13-10-16-8-19-3-18v-26l3-19 6-16 8-14 9-11 12-12 14-9 12-6 18-6z" fill="#0D324F"/>
<path transform="translate(1214,904)" d="m0 0 4 1 8 7 13 8 19 8 14 4 15 3 20 2h10l30-3 21-6 23-11 14-10 4-3 4 1 9 11 10 10 7 8 8 9-1 5-8 6-10 7-15 9-16 8-22 8-28 7-15 2h-38l-21-3-20-5-12-4-13-5-16-8-16-9-16-12-2-2 1-5 4-5 5-5 12-13 7-8 5-6z" fill="#02F9FE"/>
<path transform="translate(1550,723)" d="m0 0 16 1 11 4 9 7 7 8 6 12 2 9v17l-4 13-6 11-8 8-10 6-6 2-7 1h-13l-13-3-9-6-7-7-5-8-5-16v-18l3-11 5-10 6-8 13-9 7-2z" fill="#fff"/>
<path transform="translate(1309,723)" d="m0 0 14 1 10 3 10 7 7 7 6 12 4 15v9l-5 18-6 10-5 6-10 7-9 3-7 1h-13l-12-3-11-7-7-8-6-11-2-9v-23l3-10 7-12 8-8 12-6z" fill="#fff"/>
<path transform="translate(1067,723)" d="m0 0h9l12 2 12 7 8 9 5 10 2 6 1 8v16l-2 12-7 14-7 7-8 5-10 3-10 1-14-2-10-5-8-7-6-10-4-10-2-11v-11l3-14 7-14 9-9 10-5z" fill="#fff"/>
<path transform="translate(431,787)" d="m0 0 10 1 11 4 6 7 2 4v11l-5 9-6 4-7 2-11 1-12-2-6-3-6-7-2-6v-7l4-8 8-7z" fill="#fff"/>
</svg>
